{"asset":{"version":"2.0","generator":"babylon.js glTF exporter for 3dsmax 2019 v20200612.2"},"scene":0,"scenes":[{"nodes":[0,1]}],"nodes":[{"mesh":0,"rotation":[0.7071068,0.0,0.0,0.7071067],"scale":[2.833699,0.124767445,2.833699],"name":"Box001"},{"name":"Default light"}],"meshes":[{"primitives":[{"attributes":{"POSITION":1,"NORMAL":2,"COLOR_0":3,"TEXCOORD_0":4},"indices":0,"material":0}],"name":"Box001"}],"accessors":[{"bufferView":0,"componentType":5123,"count":2364,"type":"SCALAR","name":"accessorIndices"},{"bufferView":1,"componentType":5126,"count":2364,"max":[4.30721331,-2.57361412,2.83076477],"min":[-2.61161876,-11.8152666,-4.9076767],"type":"VEC3","name":"accessorPositions"},{"bufferView":1,"byteOffset":28368,"componentType":5126,"count":2364,"type":"VEC3","name":"accessorNormals"},{"bufferView":2,"componentType":5126,"count":2364,"type":"VEC4","name":"accessorColors"},{"bufferView":3,"componentType":5126,"count":2364,"type":"VEC2","name":"accessorUVs"}],"bufferViews":[{"buffer":0,"byteLength":4728,"name":"bufferViewScalar"},{"buffer":0,"byteOffset":4728,"byteLength":56736,"byteStride":12,"name":"bufferViewFloatVec3"},{"buffer":0,"byteOffset":61464,"byteLength":37824,"byteStride":16,"name":"bufferViewFloatVec4"},{"buffer":0,"byteOffset":99288,"byteLength":18912,"byteStride":8,"name":"bufferViewFloatVec2"}],"buffers":[{"uri":"Logo.bin","byteLength":118200}],"materials":[{"pbrMetallicRoughness":{"baseColorTexture":{"index":0},"metallicFactor":0.0,"roughnessFactor":0.450053632},"name":"01 - Default"}],"textures":[{"sampler":0,"source":0,"name":"uv.png"}],"images":[{"uri":"uv.png"}],"samplers":[{"magFilter":9729,"minFilter":9987}]}